<svg width="20" height="20" viewBox="0 0 20 20" fill="none" xmlns="http://www.w3.org/2000/svg">
<path d="M9.37501 10.625H4.79167C4.61459 10.625 4.46615 10.5648 4.34636 10.4443C4.22657 10.3238 4.16667 10.1745 4.16667 9.99638C4.16667 9.81825 4.22657 9.67016 4.34636 9.5521C4.46615 9.43405 4.61459 9.37502 4.79167 9.37502H9.37501V4.79169C9.37501 4.6146 9.43525 4.46617 9.55573 4.34637C9.67623 4.22658 9.82554 4.16669 10.0037 4.16669C10.1818 4.16669 10.3299 4.22658 10.4479 4.34637C10.566 4.46617 10.625 4.6146 10.625 4.79169V9.37502H15.2083C15.3854 9.37502 15.5339 9.43526 15.6537 9.55575C15.7734 9.67625 15.8333 9.82555 15.8333 10.0037C15.8333 10.1818 15.7734 10.3299 15.6537 10.4479C15.5339 10.566 15.3854 10.625 15.2083 10.625H10.625V15.2084C10.625 15.3854 10.5648 15.5339 10.4443 15.6537C10.3238 15.7735 10.1745 15.8334 9.99636 15.8334C9.81823 15.8334 9.67014 15.7735 9.55209 15.6537C9.43403 15.5339 9.37501 15.3854 9.37501 15.2084V10.625Z" fill="white"/>
</svg>
