<svg width="13" height="14" viewBox="0 0 13 14" fill="none" xmlns="http://www.w3.org/2000/svg">
<path fill-rule="evenodd" clip-rule="evenodd" d="M1.33484 6.05433C1.33484 3.46699 3.29981 1.36233 5.71466 1.36233C8.12888 1.36233 10.0939 3.46699 10.0939 6.05433C10.0939 8.64166 8.12888 10.747 5.71466 10.747C3.29981 10.747 1.33484 8.64166 1.33484 6.05433ZM12.8428 13.027L9.98124 9.96899C10.825 8.91499 11.3383 7.54899 11.3383 6.05433C11.3383 2.73233 8.81519 0.0289917 5.71466 0.0289917C2.6135 0.0289917 0.0903931 2.73233 0.0903931 6.05433C0.0903931 9.37699 2.6135 12.0803 5.71466 12.0803C6.97279 12.0803 8.13199 11.6297 9.06968 10.8783L11.9643 13.971L12.8428 13.027Z" fill="#858588"/>
</svg>
