<svg width="40" height="40" viewBox="0 0 40 40" fill="none" xmlns="http://www.w3.org/2000/svg">
<rect width="40" height="40" rx="4" fill="#D7DAEA"/>
<g clip-path="url(#clip0_17_700)">
<path d="M25 20.8955V12C25 11.4477 24.5523 11 24 11H12C11.4477 11 11 11.4477 11 12V27C11 27.5523 11.4477 28 12 28H18.4038" stroke="#36459B" stroke-width="1.5"/>
<path d="M14.5 14.5H21.5" stroke="#36459B" stroke-linecap="round"/>
<path d="M14.5 17.5H21.5" stroke="#36459B" stroke-linecap="round"/>
<path d="M14.5 20.5H21.5" stroke="#36459B" stroke-linecap="round"/>
<path d="M14.5 23.5H18.5" stroke="#36459B" stroke-linecap="round"/>
<path d="M27.2 29H22.772C21.242 29 20 27.7552 20 26.2217C20 24.6881 21.242 23.4433 22.772 23.4433H28.865" stroke="#36459B" stroke-width="1.5" stroke-miterlimit="10" stroke-linecap="round" stroke-linejoin="round"/>
<path d="M27.5869 24.8415L28.9999 23.4162L27.5869 22" stroke="#36459B" stroke-width="1.5" stroke-linecap="round" stroke-linejoin="round"/>
</g>
<defs>
<clipPath id="clip0_17_700">
<rect width="20" height="20" fill="white" transform="translate(10 10)"/>
</clipPath>
</defs>
</svg>
