<svg width="44" height="44" viewBox="0 0 44 44" fill="none" xmlns="http://www.w3.org/2000/svg">
<path d="M22.0013 40.3327C32.0846 40.3327 40.3346 32.0827 40.3346 21.9993C40.3346 11.916 32.0846 3.66602 22.0013 3.66602C11.918 3.66602 3.66797 11.916 3.66797 21.9993C3.66797 32.0827 11.918 40.3327 22.0013 40.3327Z" stroke="#F48D60" stroke-width="2" stroke-linecap="round" stroke-linejoin="round"/>
<path d="M22 9.5C15.1125 9.5 9.5 15.1125 9.5 22C9.5 28.8875 15.1125 34.5 22 34.5C28.8875 34.5 34.5 28.8875 34.5 22C34.5 15.1125 28.8875 9.5 22 9.5ZM27.4375 26.4625C27.2625 26.7625 26.95 26.925 26.625 26.925C26.4625 26.925 26.3 26.8875 26.15 26.7875L22.275 24.475C21.3125 23.9 20.6 22.6375 20.6 21.525V16.4C20.6 15.8875 21.025 15.4625 21.5375 15.4625C22.05 15.4625 22.475 15.8875 22.475 16.4V21.525C22.475 21.975 22.85 22.6375 23.2375 22.8625L27.1125 25.175C27.5625 25.4375 27.7125 26.0125 27.4375 26.4625Z" fill="#F48D60"/>
</svg>
