<svg width="44" height="44" viewBox="0 0 44 44" fill="none" xmlns="http://www.w3.org/2000/svg">
<path d="M29.3334 3.66669H14.6667C7.33335 3.66669 3.66669 7.33335 3.66669 14.6667V38.5C3.66669 39.5084 4.49169 40.3334 5.50002 40.3334H29.3334C36.6667 40.3334 40.3334 36.6667 40.3334 29.3334V14.6667C40.3334 7.33335 36.6667 3.66669 29.3334 3.66669ZM25.6667 27.9584H12.8334C12.0817 27.9584 11.4584 27.335 11.4584 26.5834C11.4584 25.8317 12.0817 25.2084 12.8334 25.2084H25.6667C26.4184 25.2084 27.0417 25.8317 27.0417 26.5834C27.0417 27.335 26.4184 27.9584 25.6667 27.9584ZM31.1667 18.7917H12.8334C12.0817 18.7917 11.4584 18.1684 11.4584 17.4167C11.4584 16.665 12.0817 16.0417 12.8334 16.0417H31.1667C31.9184 16.0417 32.5417 16.665 32.5417 17.4167C32.5417 18.1684 31.9184 18.7917 31.1667 18.7917Z" fill="#5178F5"/>
</svg>
