<svg width="44" height="44" viewBox="0 0 44 44" fill="none" xmlns="http://www.w3.org/2000/svg">
<path d="M22 40.3334C32.0833 40.3334 40.3333 32.0834 40.3333 22C40.3333 11.9167 32.0833 3.66669 22 3.66669C11.9167 3.66669 3.66666 11.9167 3.66666 22C3.66666 32.0834 11.9167 40.3334 22 40.3334Z" stroke="#949EDA" stroke-width="2" stroke-linecap="round" stroke-linejoin="round"/>
<path d="M30.4975 19.65C30.2317 19.2666 29.9475 18.9083 29.6542 18.575C29.315 18.1833 28.6733 18.15 28.2883 18.5L25.5383 21C25.74 21.55 25.7767 22.1833 25.5933 22.8416C25.2725 24.0166 24.2275 24.9666 22.935 25.2583C22.2108 25.425 21.5142 25.3916 20.9092 25.2083C20.9092 25.2083 19.5983 26.4 18.6542 27.2583C18.1958 27.675 18.3425 28.4083 18.9567 28.625C19.9375 28.9666 20.955 29.1416 22 29.1416C23.6317 29.1416 25.2175 28.7083 26.6658 27.9C28.1417 27.0666 29.4708 25.8416 30.5433 24.2833C31.4142 23.025 31.3683 20.9083 30.4975 19.65Z" fill="#949EDA"/>
<path d="M23.8517 20.3166L20.1484 23.6833C19.6809 23.25 19.3784 22.65 19.3784 22C19.3784 20.6916 20.5517 19.6166 22 19.6166C22.715 19.6166 23.375 19.8916 23.8517 20.3166Z" fill="#949EDA"/>
<path d="M27.7292 16.7917L24.6217 19.6167C23.9525 19 23.0267 18.6333 22 18.6333C19.9467 18.6333 18.2967 20.1417 18.2967 22C18.2967 22.9333 18.7092 23.775 19.3783 24.3833L16.28 27.2083H16.2708C15.2533 26.4583 14.3183 25.5 13.5208 24.3667C12.6042 23.0583 12.6042 20.9333 13.5208 19.625C14.5842 18.1083 15.8858 16.9167 17.3342 16.1C18.7825 15.3 20.3683 14.8583 22 14.8583C24.0442 14.8583 26.0242 15.5417 27.7292 16.7917Z" fill="#949EDA"/>
<path d="M24.6217 22C24.6217 23.3083 23.4483 24.3833 22 24.3833C21.945 24.3833 21.8992 24.3833 21.8442 24.3667L24.6033 21.8583C24.6217 21.9083 24.6217 21.95 24.6217 22Z" fill="#949EDA"/>
<path d="M30.9558 13.8583C30.6808 13.6083 30.2317 13.6083 29.9567 13.8583L13.0442 29.2417C12.7692 29.4917 12.7692 29.9 13.0442 30.15C13.1817 30.2667 13.3558 30.3333 13.5392 30.3333C13.7225 30.3333 13.8967 30.2667 14.0342 30.1417L30.9558 14.7583C31.24 14.5083 31.24 14.1083 30.9558 13.8583Z" fill="#949EDA"/>
</svg>
