<svg width="44" height="44" viewBox="0 0 44 44" fill="none" xmlns="http://www.w3.org/2000/svg">
<path d="M22 40.3334C32.0833 40.3334 40.3333 32.0834 40.3333 22C40.3333 11.9167 32.0833 3.66669 22 3.66669C11.9167 3.66669 3.66667 11.9167 3.66667 22C3.66667 32.0834 11.9167 40.3334 22 40.3334Z" stroke="#72A881" stroke-width="2" stroke-linecap="round" stroke-linejoin="round"/>
<path d="M22 9.5C15.1125 9.5 9.5 15.1125 9.5 22C9.5 28.8875 15.1125 34.5 22 34.5C28.8875 34.5 34.5 28.8875 34.5 22C34.5 15.1125 28.8875 9.5 22 9.5ZM27.975 19.125L20.8875 26.2125C20.7125 26.3875 20.475 26.4875 20.225 26.4875C19.975 26.4875 19.7375 26.3875 19.5625 26.2125L16.025 22.675C15.6625 22.3125 15.6625 21.7125 16.025 21.35C16.3875 20.9875 16.9875 20.9875 17.35 21.35L20.225 24.225L26.65 17.8C27.0125 17.4375 27.6125 17.4375 27.975 17.8C28.3375 18.1625 28.3375 18.75 27.975 19.125Z" fill="#72A881"/>
</svg>
