<svg width="38" height="38" viewBox="0 0 38 38" fill="none" xmlns="http://www.w3.org/2000/svg">
<path d="M26.3334 0.666687H11.6667C4.33335 0.666687 0.666687 4.33335 0.666687 11.6667V35.5C0.666687 36.5084 1.49169 37.3334 2.50002 37.3334H26.3334C33.6667 37.3334 37.3334 33.6667 37.3334 26.3334V11.6667C37.3334 4.33335 33.6667 0.666687 26.3334 0.666687ZM22.6667 24.9584H9.83335C9.08169 24.9584 8.45835 24.335 8.45835 23.5834C8.45835 22.8317 9.08169 22.2084 9.83335 22.2084H22.6667C23.4184 22.2084 24.0417 22.8317 24.0417 23.5834C24.0417 24.335 23.4184 24.9584 22.6667 24.9584ZM28.1667 15.7917H9.83335C9.08169 15.7917 8.45835 15.1684 8.45835 14.4167C8.45835 13.665 9.08169 13.0417 9.83335 13.0417H28.1667C28.9184 13.0417 29.5417 13.665 29.5417 14.4167C29.5417 15.1684 28.9184 15.7917 28.1667 15.7917Z" fill="#5178F5"/>
</svg>
